<svg width="500" height="800" viewBox="0 0 500 800" fill="none" xmlns="http://www.w3.org/2000/svg">
<g clip-path="url(#clip0_91_2433)">
<path d="M339 0C427.366 0 499 71.6344 499 160V720C499 764.183 463.183 800 419 800H80C35.8172 800 6.44344e-07 764.183 0 720V80C1.03095e-05 35.8172 35.8172 0 80 0H339ZM489 202.5C489 311 467.999 351.363 384.999 411C306.2 467.619 138.151 497.049 31.5078 499.789C105.188 655.765 367.007 774 459 774C469 774 489 761.3 489 710.5V202.5Z" fill="url(#paint0_linear_91_2433)"/>
<path fill-rule="evenodd" clip-rule="evenodd" d="M340 0C428.366 0 500 71.6344 500 160V197.703C500.642 199.172 501 200.794 501 202.5C501 215.67 500.695 227.957 500 239.492V720L499.993 721.034C499.439 764.74 463.838 800 420 800H80C36.1625 800 0.560549 764.74 0.00683594 721.034L0 720V80C1.02289e-05 36.1625 35.2597 0.560548 78.9658 0.00683594L80 0H340ZM24 511.938V720C24 750.928 49.0721 776 80 776H410.723C389.782 771.103 366.31 763.77 341.651 754.415C293.72 736.232 240.131 709.965 189.919 677.516C139.759 645.1 92.5396 606.236 57.7422 562.703C44.788 546.497 33.4751 529.537 24.376 511.934C24.2506 511.935 24.1252 511.936 24 511.938ZM435.319 712.153C409.035 718.841 372.678 723.919 336.266 726.532C340.948 728.422 345.583 730.238 350.164 731.976C395.546 749.192 434.457 758.441 459.267 758.975C456.127 752.781 451.588 743.857 445.87 732.689C442.703 726.504 439.173 719.632 435.319 712.153ZM476 335.869C458.843 367.053 431.724 392.203 392.001 420.745C373.609 433.96 350.82 445.637 325.403 455.843C359.261 516.369 392.18 577.827 419.272 629.349C438.931 666.732 455.538 698.913 467.232 721.751C469.707 726.584 471.961 731 473.979 734.958C475.295 730.196 476 725.181 476 720V335.869ZM391.561 628.241C337.929 647.581 283.86 663.067 223.207 670.002C244.241 682.676 265.656 694.222 286.762 704.492C333.475 704.275 388.065 698.583 423.979 690.216C416.169 675.154 407.452 658.435 398.03 640.519C395.909 636.484 393.75 632.391 391.561 628.241ZM344.159 539.646C288.545 565.295 228.413 590.374 122.228 595.947C142.973 614.794 165.939 632.507 190.049 648.828C259.61 644.552 319.753 628.43 380.217 606.813C368.82 585.355 356.705 562.752 344.159 539.646ZM302.662 464.354C273.749 474.45 242.374 482.853 210.761 489.638C155.757 501.442 98.9783 508.569 51.2285 511.027C58.4233 523.478 66.9008 535.723 76.4893 547.719C83.3142 556.257 90.6771 564.635 98.498 572.835C213.923 570.047 275.286 544.934 332.646 518.524C322.812 500.554 312.773 482.401 302.662 464.354ZM263.231 395.289C227.225 407.874 183.037 416.817 139.876 420.906C98.4846 424.828 57.0243 424.382 24 417.885V418C24.0001 441.59 29.4391 464.849 39.3223 487.535C87.677 485.728 147.656 478.634 205.725 466.172C235.414 459.8 264.288 452.087 290.688 443.094C281.521 426.906 272.337 410.899 263.231 395.289ZM80 24C67.5633 24 56.0737 28.0543 46.7803 34.9131C50.3921 39.6663 54.795 45.4837 59.873 52.2461C75.0913 72.5121 96.3948 101.263 120.754 135.223C169.436 203.091 230.469 291.971 279.507 375.579C290.77 394.782 302.172 414.637 313.534 434.736C338.644 424.856 360.708 413.677 377.997 401.255C419.002 371.792 443.093 348.174 457.401 319.688C468.236 298.117 473.885 272.914 476 238.721V160C476 84.8893 415.111 24 340 24H80ZM24 393.366C54.2537 400.108 95.1197 401.039 137.612 397.014C177.504 393.234 217.83 385.182 250.783 374.179C240.654 357.232 230.079 340.116 219.262 323.05C132.98 327.733 82.9252 329.327 24 315.219V393.366ZM24 290.499C78.5956 304.412 123.785 304.006 204.364 299.808C190.577 278.523 176.555 257.475 162.698 237.099C106.038 240.474 64.8991 235.27 24 220.272V290.499ZM30.6973 53.4199C26.4249 61.328 24 70.3809 24 80V194.565C60.6111 209.26 96.5954 215.495 146.746 213.821C130.946 190.94 115.576 169.179 101.253 149.211C77.0143 115.419 55.8161 86.8116 40.6816 66.6572C36.9749 61.721 33.6314 57.293 30.6973 53.4199Z" fill="#293A2A"/>
</g>
<defs>
<linearGradient id="paint0_linear_91_2433" x1="0" y1="0" x2="606.548" y2="707.842" gradientUnits="userSpaceOnUse">
<stop stop-color="#F1C54B"/>
<stop offset="1" stop-color="#916C2C"/>
</linearGradient>
<clipPath id="clip0_91_2433">
<rect width="500" height="800" fill="white"/>
</clipPath>
</defs>
</svg>
